#tb 0: 1/25
0,          0,          0,        1,   135168, 0x60746d0d
0,          1,          1,        1,   135168, 0x3a19788d
0,          2,          2,        1,   135168, 0x18e0d247
0,          3,          3,        1,   135168, 0x8b4c177f
0,          4,          4,        1,   135168, 0xc4b34d26
0,          5,          5,        1,   135168, 0xba364556
0,          6,          6,        1,   135168, 0xfcab7319
0,          7,          7,        1,   135168, 0x363d77ce
0,          8,          8,        1,   135168, 0x04367b07
0,          9,          9,        1,   135168, 0x6e5b55a0
0,         10,         10,        1,   135168, 0x33918421
0,         11,         11,        1,   135168, 0x05ba7ff3
0,         12,         12,        1,   135168, 0xcae09d62
0,         13,         13,        1,   135168, 0xca78c5cb
0,         14,         14,        1,   135168, 0x1542db51
0,         15,         15,        1,   135168, 0xe013f307
0,         16,         16,        1,   135168, 0x064008dd
0,         17,         17,        1,   135168, 0xeb7010d5
0,         18,         18,        1,   135168, 0x0cd313e1
0,         19,         19,        1,   135168, 0xaf1b135f
0,         20,         20,        1,   135168, 0x1b3c02c0
0,         21,         21,        1,   135168, 0x50940658
0,         22,         22,        1,   135168, 0x83a2046e
0,         23,         23,        1,   135168, 0x1edf0a54
0,         24,         24,        1,   135168, 0x37141206
0,         25,         25,        1,   135168, 0x7832163e
0,         26,         26,        1,   135168, 0xd4ba13dc
0,         27,         27,        1,   135168, 0x9ba710a3
0,         28,         28,        1,   135168, 0x434a108f
0,         29,         29,        1,   135168, 0x86b01071
0,         30,         30,        1,   135168, 0x7bd91c8d
0,         31,         31,        1,   135168, 0x7a4c179c
0,         32,         32,        1,   135168, 0x023f15b2
0,         33,         33,        1,   135168, 0xe8901b20
0,         34,         34,        1,   135168, 0x49d3157b
0,         35,         35,        1,   135168, 0xdc990af9
0,         36,         36,        1,   135168, 0x1ff707a2
0,         37,         37,        1,   135168, 0xe6610022
0,         38,         38,        1,   135168, 0x6fc3f168
0,         39,         39,        1,   135168, 0x719809ff
0,         40,         40,        1,   135168, 0xd1d9144f
0,         41,         41,        1,   135168, 0x2f801797
0,         42,         42,        1,   135168, 0x111c1eae
0,         43,         43,        1,   135168, 0x23c11c4c
0,         44,         44,        1,   135168, 0x07351d23
0,         45,         45,        1,   135168, 0x04f1173d
0,         46,         46,        1,   135168, 0xb2b71c10
0,         47,         47,        1,   135168, 0x58c01a53
0,         48,         48,        1,   135168, 0xadd11b7a
0,         49,         49,        1,   135168, 0x924123c2
